<svg id="Capa_1" data-name="Capa 1" xmlns="http://www.w3.org/2000/svg" viewBox="0 0 730 1095"><defs><style>.cls-1{fill:#ff3233;}.cls-2{fill:#fff;}.cls-2,.cls-3,.cls-4{stroke:#1d1d1b;}.cls-13,.cls-14,.cls-15,.cls-16,.cls-17,.cls-2,.cls-3,.cls-4,.cls-5,.cls-6,.cls-7{stroke-miterlimit:10;}.cls-2,.cls-7{stroke-width:5px;}.cls-3{fill:#636363;}.cls-16,.cls-3,.cls-4,.cls-5,.cls-6{stroke-width:3px;}.cls-4{fill:#8dc740;}.cls-5{fill:#464646;}.cls-13,.cls-5,.cls-7{stroke:#010200;}.cls-6{fill:#222;}.cls-15,.cls-6{stroke:#000;}.cls-13,.cls-15,.cls-7{fill:none;}.cls-8{fill:#ec5564;}.cls-9{fill:#434a54;}.cls-10{fill:#cfd1d5;}.cls-11{fill:#f07783;}.cls-12{fill:#e5e8ec;}.cls-14{fill:#3ab848;stroke:#375c39;}.cls-14,.cls-15{stroke-width:4px;}.cls-16{fill:#ff363d;stroke:#7a2d2a;}.cls-17{fill:#167b2e;stroke:#002300;}.cls-18{fill:#2387ba;}.cls-19{fill:#fcfdfd;}</style></defs><rect class="cls-1" width="730" height="1095" rx="28.39"/><rect class="cls-2" x="54.54" y="184.91" width="620.92" height="593.17"/><rect class="cls-3" x="35.06" y="831.27" width="659.89" height="247.71" rx="27.41"/><rect class="cls-4" x="46.56" y="846.16" width="636.88" height="43.16" rx="18.5"/><polygon class="cls-5" points="98.33 918.83 98.33 962.2 54.51 962.2 54.51 1010.2 98.33 1010.2 98.33 1053.14 144.57 1053.14 144.57 1009.76 188.38 1009.98 188.38 963.08 145.67 962.64 145.67 918.83 98.33 918.83"/><polygon class="cls-6" points="84.94 972.66 74.81 972.66 61.27 985.54 74.15 999.3 86.15 999.3 73.71 985.98 84.94 972.66"/><polygon class="cls-6" points="157.67 972.66 167.8 972.66 181.34 985.54 168.46 999.3 156.46 999.3 168.9 985.98 157.67 972.66"/><polygon class="cls-6" points="108.13 1020.66 108.13 1030.79 121.01 1044.33 134.77 1031.45 134.77 1019.45 121.45 1031.89 108.13 1020.66"/><polygon class="cls-6" points="108.13 953.03 108.13 942.9 121.01 929.36 134.77 942.24 134.77 954.24 121.45 941.8 108.13 953.03"/><rect class="cls-4" x="203.5" y="908.2" width="323.01" height="155.56"/><path class="cls-7" d="M199.25,165H1.09C215.44,165.69,263,176.26,302,117.47s46.24-62.09,150.6-62.09H728.91"/><path class="cls-8" d="M642.65,67.12h1a1,1,0,0,0,.82.18,44.28,44.28,0,0,1,16.89,3.39,49.42,49.42,0,0,1,14.21,8.56,54.71,54.71,0,0,1,9.85,11.4,36,36,0,0,1,3.2,6,46.72,46.72,0,0,1,3.86,15c-4.73.71-9.5,1.15-14.27,1.54-4.1.35-8.2.56-12.31.84-.55,0-.86-.09-1-.69a18.18,18.18,0,0,0-4.61-7.65A19,19,0,0,0,636.63,103a17.49,17.49,0,0,0-7.77,10.1,1.13,1.13,0,0,1-1.42,1c-2.05-.16-4.1-.23-6.15-.37-4.84-.35-9.68-.7-14.5-1.29-3.31-.4-6.63-.83-9.94-1.25,0-.51.09-1,.17-1.53a46.12,46.12,0,0,1,6.82-18.63,48.83,48.83,0,0,1,10.7-12.27,50.91,50.91,0,0,1,12.19-7.45A52.71,52.71,0,0,1,638,67.87,37.38,37.38,0,0,0,642.65,67.12Z"/><path class="cls-9" d="M596.85,111.1c3.31.42,6.63.85,9.94,1.25,4.82.59,9.66.94,14.5,1.29,2.05.14,4.1.21,6.15.37a1.13,1.13,0,0,0,1.42-1,17.49,17.49,0,0,1,7.77-10.1,19,19,0,0,1,23.58,2.73,18.18,18.18,0,0,1,4.61,7.65c.18.6.49.72,1,.69,4.11-.28,8.21-.49,12.31-.84,4.77-.39,9.54-.83,14.27-1.54l4.28-.53a44.78,44.78,0,0,1,.19,8.89,2.21,2.21,0,0,1-.25,1.37c-4,.57-7.93,1.14-11.92,1.52-6.43.62-12.86,1.16-19.31,1.4a.94.94,0,0,0-1,.7,18,18,0,0,1-4.39,6.67,19,19,0,0,1-23.41,2.57,17.61,17.61,0,0,1-7.44-9.07,1.12,1.12,0,0,0-1.15-.88c-9-.34-18.06-1.22-27-2.28l-4.25-.66c-.06-.19.1-.46-.21-.56v-8.5C597,112,596.6,111.46,596.85,111.1Zm49.83,15.71a8.23,8.23,0,1,0-8.22-8.2A8.24,8.24,0,0,0,646.68,126.81Z"/><path class="cls-10" d="M646.5,166.15c-.32-.29-.73-.18-1.1-.18a49.14,49.14,0,0,1-18.32-3.91,53.4,53.4,0,0,1-12.27-7.35,49.52,49.52,0,0,1-11.3-13,45.75,45.75,0,0,1-6.29-16.54,21.22,21.22,0,0,1-.47-3.81L601,122a41,41,0,0,0,1.62,7.79c2.42,7.93,6.15,15,12.12,20.91a51.86,51.86,0,0,0,11.82,9,47.7,47.7,0,0,0,22.82,6.07,2.35,2.35,0,0,1,1.31.15c-1,.14-2-.22-3,.22Z"/><path class="cls-11" d="M650.56,67.12c1.63.25,3.28.47,4.91.74a49.91,49.91,0,0,1,28,15c6.16,6.27,9.91,13.8,12.09,22.23a32.45,32.45,0,0,1,1.16,6l-4.28.53a46.72,46.72,0,0,0-3.86-15,36,36,0,0,0-3.2-6,54.71,54.71,0,0,0-9.85-11.4,49.42,49.42,0,0,0-14.21-8.56,44.28,44.28,0,0,0-16.89-3.39,1,1,0,0,1-.82-.18Z"/><path class="cls-12" d="M650.69,165.93a2.35,2.35,0,0,0-1.31-.15,47.7,47.7,0,0,1-22.82-6.07,51.86,51.86,0,0,1-11.82-9c-6-5.86-9.7-13-12.12-20.91A41,41,0,0,1,601,122c9,1.06,18,1.94,27,2.28a1.12,1.12,0,0,1,1.15.88,17.61,17.61,0,0,0,7.44,9.07,19,19,0,0,0,23.41-2.57,18,18,0,0,0,4.39-6.67.94.94,0,0,1,1-.7c6.45-.24,12.88-.78,19.31-1.4,4-.38,8-1,11.92-1.52a9.13,9.13,0,0,1-.35,4c-.68,2.5-1.35,5-2.17,7.46a47.4,47.4,0,0,1-3.8,8.4,43.59,43.59,0,0,1-6.52,8.78,51.08,51.08,0,0,1-10.7,8.75,51.8,51.8,0,0,1-17.1,6.48C654.25,165.52,652.47,165.68,650.69,165.93Z"/><path class="cls-12" d="M646.68,126.81a8.23,8.23,0,1,1,8.44-8.18A8.23,8.23,0,0,1,646.68,126.81Z"/><ellipse class="cls-13" cx="646.89" cy="117.59" rx="50.37" ry="49.54"/><circle class="cls-14" cx="632.06" cy="1011.3" r="29.83"/><circle class="cls-15" cx="632.5" cy="1010.97" r="33.36"/><circle class="cls-16" cx="584.58" cy="938.91" r="24.15"/><circle class="cls-15" cx="584.94" cy="938.64" r="27"/><path class="cls-17" d="M611.94,1018.51s12.22,8.43,13.7,13.38c2.15-1.65,11.56-18.33,19.32-23V993.08s-14.53,11.23-18.82,27.75c-.83-2.48-3.47-9.42-4.63-9.58S612.76,1015.71,611.94,1018.51Z"/><polygon class="cls-16" points="587.94 927.74 597.63 927.74 590.47 938.42 597.63 949.54 587.94 949.54 584.52 944.37 581.88 949.54 571.53 949.54 579.13 938.64 573.08 928.29 582.1 928.29 584.58 932.92 587.94 927.74"/><circle class="cls-16" cx="100.31" cy="80.47" r="54.99"/><path class="cls-18" d="M153.39,77.26v6.27c-.2.09-.12.27-.13.41-.13,1.52-.27,3-.51,4.56a52.88,52.88,0,0,1-50.13,45.16,52.83,52.83,0,0,1-50.23-29.33,53.16,53.16,0,0,1-5.58-24.84,52.93,52.93,0,0,1,16.67-37.8A52,52,0,0,1,86.59,28.85a56.48,56.48,0,0,1,15.87-1.52A46.73,46.73,0,0,1,117.3,30c17.26,6.29,28.64,18.23,34,35.81a48.11,48.11,0,0,1,1.85,9.81A4.3,4.3,0,0,0,153.39,77.26ZM97.63,119.81c1,0,2.16-.09,3.33-.23a31.11,31.11,0,0,0,19.11-9.68,37.92,37.92,0,0,0,7-11.26,4,4,0,0,0,.39-1.74c0-.32.08-.77-.25-.89s-.57.3-.75.6l-.2.27c-5.81,6.93-13.19,10.27-22.26,9.29A24.48,24.48,0,0,1,82.61,86.23a11.74,11.74,0,0,0-.4-1.68c-.22-.64-.58-.76-1.21-.51a4.65,4.65,0,0,0-.59.3c-4.3,2.61-8.5,5.36-12.57,8.32a2.46,2.46,0,0,0-1,2.85C70.19,108.87,81,119.45,97.63,119.81ZM128.57,75c0-1.08-.06-3.08,0-5.08.06-1.39-.5-1.87-1.87-1.65-.79.13-1.57.29-2.36.44-4.42.87-8.86,1.66-13.2,2.92-1.82.53-2,.82-1,2.41a15.14,15.14,0,0,1-4.58,20.73c-4,2.68-8.3,2.46-12.72,1.82-.38,0-.79-.32-1.07.16s.15.72.41,1l.15.14c6.5,5.43,13.75,7.14,21.82,4.17,8.28-3.06,12.84-9.17,14.09-17.82A73.13,73.13,0,0,0,128.57,75Zm-19.22,7.22A12,12,0,0,0,97.44,69.86a12.25,12.25,0,0,0-12.35,12A11.93,11.93,0,0,0,97.17,94.21C104.2,94.21,109.35,89.15,109.35,82.23Zm19.23-28.52h0v-6.8c0-1,0-2,0-3S128,42.46,127,42.58c-.48.06-1,.19-1.44.26-5.18.72-10.23,2-15.31,3.26a2.27,2.27,0,0,0-2,2.63c0,1.07.06,2.13.06,3.2,0,4,0,8,0,12.06,0,1.2,0,2.4,0,3.6s.39,1.51,1.65,1.18c1.57-.41,3.12-.87,4.7-1.25,4-1,8.08-1.51,12.09-2.4,1.47-.32,1.8-.57,1.8-2.14C128.57,59.89,128.58,56.8,128.58,53.71ZM82.25,69h0c0-3.09,0-6.18,0-9.26,0-.53.15-1.16-.38-1.47s-1,.16-1.45.43A111.88,111.88,0,0,0,70,65.55c-.93.73-1.89,1.41-2.85,2.1A2.67,2.67,0,0,0,66,70c0,3.24.05,6.48.05,9.73,0,2.82,0,5.64,0,8.46a6.08,6.08,0,0,0,.09,1.13c.1.48.39.68.88.44a3.3,3.3,0,0,0,.51-.31,115.35,115.35,0,0,1,13.38-8.61,2.56,2.56,0,0,0,1.39-2.46C82.23,75.29,82.25,72.15,82.25,69ZM105.43,58.4h0c0-3.11,0-6.23,0-9.34,0-1.19-.45-1.54-1.53-1.13a173.68,173.68,0,0,0-17.1,7.27,3,3,0,0,0-1.8,3c0,3.89,0,7.78,0,11.67q0,.6,0,1.2c0,.43-.08.89.43,1.09s.72-.19,1-.49a5.73,5.73,0,0,1,.39-.45c4.85-4.3,10.3-5.54,16.36-3,.43.19.85.39,1.29.54a.61.61,0,0,0,.89-.52,5.16,5.16,0,0,0,.06-.79C105.44,64.45,105.43,61.42,105.43,58.4Z"/><path class="cls-19" d="M97.63,119.81c-16.64-.36-27.44-10.94-30.82-24.3a2.46,2.46,0,0,1,1-2.85c4.07-3,8.27-5.71,12.57-8.32A4.65,4.65,0,0,1,81,84c.63-.25,1-.13,1.21.51a11.74,11.74,0,0,1,.4,1.68A24.48,24.48,0,0,0,104,106.17c9.07,1,16.45-2.36,22.26-9.29l.2-.27c.18-.3.33-.75.75-.6s.25.57.25.89a4,4,0,0,1-.39,1.74,37.92,37.92,0,0,1-7,11.26A31.11,31.11,0,0,1,101,119.58C99.79,119.72,98.62,119.76,97.63,119.81Z"/><path class="cls-19" d="M128.57,75a73.13,73.13,0,0,1-.27,9.24c-1.25,8.65-5.81,14.76-14.09,17.82-8.07,3-15.32,1.26-21.82-4.17l-.15-.14c-.26-.28-.69-.51-.41-1s.69-.21,1.07-.16c4.42.64,8.76.86,12.72-1.82a15.14,15.14,0,0,0,4.58-20.73c-1-1.59-.84-1.88,1-2.41,4.34-1.26,8.78-2,13.2-2.92.79-.15,1.57-.31,2.36-.44,1.37-.22,1.93.26,1.87,1.65C128.51,71.93,128.6,73.93,128.57,75Z"/><path class="cls-19" d="M109.35,82.23c0,6.92-5.15,12-12.18,12A11.93,11.93,0,0,1,85.09,81.89a12.25,12.25,0,0,1,12.35-12A12,12,0,0,1,109.35,82.23Z"/><path class="cls-19" d="M128.58,53.71c0,3.09,0,6.18,0,9.27,0,1.57-.33,1.82-1.8,2.14-4,.89-8.09,1.44-12.09,2.4-1.58.38-3.13.84-4.7,1.25-1.26.33-1.59.12-1.65-1.18s-.06-2.4,0-3.6c0-4,0-8,0-12.06,0-1.07,0-2.13-.06-3.2a2.27,2.27,0,0,1,2-2.63c5.08-1.21,10.13-2.54,15.31-3.26.48-.07,1-.2,1.44-.26,1-.12,1.52.31,1.54,1.33s0,2,0,3v6.8Z"/><path class="cls-19" d="M82.25,69c0,3.13,0,6.27,0,9.4a2.56,2.56,0,0,1-1.39,2.46,115.35,115.35,0,0,0-13.38,8.61,3.3,3.3,0,0,1-.51.31c-.49.24-.78,0-.88-.44A6.08,6.08,0,0,1,66,88.23c0-2.82,0-5.64,0-8.46,0-3.25,0-6.49-.05-9.73a2.67,2.67,0,0,1,1.17-2.39c1-.69,1.92-1.37,2.85-2.1a111.88,111.88,0,0,1,10.38-6.83c.44-.27.9-.75,1.45-.43s.38.94.38,1.47c0,3.08,0,6.17,0,9.26Z"/><path class="cls-19" d="M105.43,58.4c0,3,0,6.05,0,9.07a5.16,5.16,0,0,1-.06.79.61.61,0,0,1-.89.52c-.44-.15-.86-.35-1.29-.54-6.06-2.56-11.51-1.32-16.36,3a5.73,5.73,0,0,0-.39.45c-.27.3-.51.67-1,.49S85,71.5,85,71.07s0-.8,0-1.2c0-3.89,0-7.78,0-11.67a3,3,0,0,1,1.8-3,173.68,173.68,0,0,1,17.1-7.27c1.08-.41,1.53-.06,1.53,1.13,0,3.11,0,6.23,0,9.34Z"/><path d="M402.88,81.2l-10.5,6.86q-1.06-2.62-7.06-2.62c-.9,0-1.83.65-2.79,1.94a7.26,7.26,0,0,0-1.43,4.39,8.05,8.05,0,0,0,1.11,3.55,3.9,3.9,0,0,0,3.49,1.81,8.94,8.94,0,0,0,3.93-1,8.4,8.4,0,0,0,3.57-4,16.77,16.77,0,0,0,1.94,1.76Q397,95.43,398.93,97l2.85,2.32a16.58,16.58,0,0,1-10.86,10,23.87,23.87,0,0,1-6.37.89,17.21,17.21,0,0,1-7.79-1.68,12.72,12.72,0,0,1-5.52-5.74,27.62,27.62,0,0,1-2.63-11c0-.46-.05-1.14-.05-2.07a26.86,26.86,0,0,1,.81-6.65A16.85,16.85,0,0,1,372,77.29a13.57,13.57,0,0,1,5.08-4.18,18,18,0,0,1,7.82-1.69,25.13,25.13,0,0,1,6,.72,23.7,23.7,0,0,1,5.42,2,16,16,0,0,1,4.23,3.12A8.82,8.82,0,0,1,402.88,81.2Z"/><path d="M414,107.7l24.59,1.15L438.42,119l-34.2-1.71L402.32,82l-3.28.59.59-11.14L428,67.18l.58,10.2L412.5,80.05l.37,7.31,15.94-2.69.58,8.43-16.12,3.07Z"/><path d="M429.57,74.49q2.63-5.58,10.94-5.57a37.69,37.69,0,0,1,9.24,1.23q4.85,1.23,11.5,3.38c-.34.78-1.07,2.74-2.2,5.86a34.31,34.31,0,0,1-1.83,4.69,16.74,16.74,0,0,0-2.14-1.23c-1.31-.7-2.73-1.37-4.27-2a14.54,14.54,0,0,0-3.76-1.15A26.49,26.49,0,0,1,444,79a15,15,0,0,0-3.57-.66,2.7,2.7,0,0,0-1.64.42,2,2,0,0,0-1,1.6,3.06,3.06,0,0,0,.79,1.84,12.55,12.55,0,0,0,2.09,2,32.28,32.28,0,0,0,2.86,1.92c1.05.62,2.08,1.19,3.09,1.69a25.7,25.7,0,0,1,5.45,3.52,19.21,19.21,0,0,1,3.6,3.95,15.14,15.14,0,0,1,1.89,4,13.49,13.49,0,0,1,.59,3.83,9.48,9.48,0,0,1-.77,3.89,9,9,0,0,1-4.19,4.4,14.82,14.82,0,0,1-6.61,1.37,31.2,31.2,0,0,1-5-.46q-2.76-.46-5.32-1.15c-1.71-.46-3.52-1-5.41-1.59s-3.57-1.14-5-1.61c.24-.48.61-1.44,1.14-2.87s1-2.67,1.33-3.71.71-2,1-2.77a4.29,4.29,0,0,1,.55-1.2,33.38,33.38,0,0,0,4.41,2.36,20.14,20.14,0,0,0,5.79,2,19.12,19.12,0,0,1,2.55.56l2.48.66a6.63,6.63,0,0,0,1.58.16,2.72,2.72,0,0,0,1.64-.42,2.11,2.11,0,0,0,1.05-1.64q0-1.92-4.9-4.5a46.85,46.85,0,0,1-6.66-4.39,33.47,33.47,0,0,1-6.43-6.54,12.47,12.47,0,0,1-2.75-7.42A8.59,8.59,0,0,1,429.57,74.49Z"/><path d="M471.23,67q-.15,2.19-.15,5c0,2.86.12,6,.34,9.54s.52,6.61.86,9.33a23.23,23.23,0,0,0,1.05,5.27q1.2,2.7,2.61,2.7a2.24,2.24,0,0,0,1.64-.92,7.68,7.68,0,0,0,1.33-2.34q1-2.58,1-8.55,0-2.4-.09-4.62c-.08-1.47-.18-3.1-.3-4.88s-.24-3.66-.37-5.63-.22-3.3-.25-4l12.47,1c.31,2,.57,4.42.76,7.17s.3,5.48.3,8.2a77.14,77.14,0,0,1-.43,8.46,33.32,33.32,0,0,1-1.4,6.89,13.1,13.1,0,0,1-2,3.58,29.71,29.71,0,0,1-3.31,3.66,19.28,19.28,0,0,1-3.09,2.46,13.68,13.68,0,0,1-6.82,1.58,19.32,19.32,0,0,1-6-1,15.43,15.43,0,0,1-5.2-2.82,9.92,9.92,0,0,1-2.47-3.83A32.27,32.27,0,0,1,460,97.12a72.74,72.74,0,0,1-.93-7.39c-.19-2.53-.28-5-.28-7.48a75,75,0,0,1,.54-9.68l-4-1-.19-6Z"/><path d="M502.9,66.62,509,82.16,507.7,68l14.58.59.4,52.59-8.65.59-8.83-25,.18,20.55-11.13.19-1.34-44.93-4-1-.18-6Z"/><path d="M345.81,133.53q2.83-.93,5.34-1.73c1.66-.53,3.41-1,5.26-1.51s3.61-.86,5.29-1.14a23.87,23.87,0,0,1,4-.33,31.41,31.41,0,0,1,4.45.19,12.2,12.2,0,0,1,3,1,8.91,8.91,0,0,1,2.53,1.82,9.2,9.2,0,0,1,1.82,2.68,3.25,3.25,0,0,1,.28,1.34c0,1.75-.95,3.91-2.87,6.47a59.27,59.27,0,0,1-5.76,6.7c-1.93,1.91-3.38,3.27-4.33,4.1L369,167.89l-6.14,4.43-10.76-30.73a2.35,2.35,0,0,0-.44.45l-1.05,1.16c-.43.48-.7.77-.81.88a4.42,4.42,0,0,1-.45-1c-.26-.67-.6-1.6-1-2.8s-.92-2.52-1.46-4S346,133.91,345.81,133.53ZM361,140.05,362.9,147c1-1,2.17-2.33,3.61-4s2.16-2.94,2.16-3.7a.46.46,0,0,0-.38-.52,10,10,0,0,0-2.09-.23A8.53,8.53,0,0,0,361,140.05Z"/><path d="M409.17,135.64A13.52,13.52,0,0,1,414.73,147a19.51,19.51,0,0,1-.69,5,23.76,23.76,0,0,1-1.94,5,25.56,25.56,0,0,1-2.74,4.22,40.46,40.46,0,0,1-4.86,5.13,26.1,26.1,0,0,1-4.84,3.38,21.46,21.46,0,0,1-4.71,1.89,17.86,17.86,0,0,1-4.45.59,16.26,16.26,0,0,1-9.17-2.72,13.7,13.7,0,0,1-4.58-5.86,20.42,20.42,0,0,1-1.82-8.56,18.56,18.56,0,0,1,4.67-12.65,45.71,45.71,0,0,1,5.76-5.58,27.24,27.24,0,0,1,6.26-3.83,16.56,16.56,0,0,1,6.61-1.4A18,18,0,0,1,409.17,135.64Zm-4.61,6.05a9.1,9.1,0,0,1-1.9,4.33,3.94,3.94,0,0,1-3,1.72A2.27,2.27,0,0,1,398,147a2.79,2.79,0,0,1-.62-1.13,4.75,4.75,0,0,1-.25-1.45,5.35,5.35,0,0,1,.86-2.82,7.14,7.14,0,0,1,2.73-2.43,6.83,6.83,0,0,0-3.83,1,6.39,6.39,0,0,0-2.33,2.66,7.91,7.91,0,0,0-.75,3.36,4.77,4.77,0,0,0,1.59,4,6.14,6.14,0,0,0,3.84,1.55,4.89,4.89,0,0,0,4-2.11,8.34,8.34,0,0,0,1.62-5.23A11,11,0,0,0,404.56,141.69Z"/><path d="M413,131.61l11.91-5v7.69l6.33-6.73,8.06,6.73L427.79,151l24,18.45.57,9.4L428,165.59l.59,11.51-11.16.21L415.3,136.6l-3.44.78Z"/><path d="M456,167.7l24.58,1.15L480.4,179l-34.2-1.71L444.3,142l-3.28.59.59-11.14,28.4-4.24.59,10.2-16.13,2.67.38,7.31,15.94-2.69.58,8.43-16.12,3.07Zm-6.71-46.47,12.47-6.89,5.37,8.25L452,125.47Z"/><path d="M502.27,134.49a30,30,0,0,1,1.84,4.56,30.91,30.91,0,0,1,1.08,4.7,31.63,31.63,0,0,1,.34,4.62,27.79,27.79,0,0,1-1.09,7.83,23.25,23.25,0,0,1-3.13,6.71,17.25,17.25,0,0,1-4.93,4.82A15.12,15.12,0,0,1,490,170l-9.78,1.74-3.28-30.15c-.11,0-.49.42-1.15,1.25s-1,1.24-1.14,1.24a3.53,3.53,0,0,1-.91-2q-.37-1.65-1.1-5.11a27.4,27.4,0,0,0-1.06-4.22q5.42-1.75,10.19-2.85a40.07,40.07,0,0,1,8.91-1.09Q499.5,128.82,502.27,134.49Zm-9.21,4.22A10.15,10.15,0,0,0,490,138a5.17,5.17,0,0,0-3.07,1.06l1.17,21.33c2.64-1.15,4.4-2.27,5.28-3.39a8.16,8.16,0,0,0,1.61-2.78,10.94,10.94,0,0,0,.48-2.55,39.09,39.09,0,0,0,.25-4.55,22.73,22.73,0,0,0-.6-5.61C494.69,140,494,139,493.06,138.71Z"/><path d="M518.38,167.7,543,168.85,542.78,179l-34.19-1.71L506.69,142l-3.28.59.58-11.14,28.41-4.24.59,10.2-16.13,2.67.38,7.31,15.93-2.69.59,8.43-16.13,3.07Z"/><path d="M551.79,162.9l-9,15.56-12.1.38,16.69-27.07-14-23.42,13.07,1.9,6.52,11.16,6.33-11.16,12.87-.56-13.62,22.9,12.09,24.14-13.26-3.07Z"/><path d="M65.21,879V860.62h2.2v2.63H69.6v2.62H67.41V879Zm4.39-10.5v-2.63h2.2v2.63Zm2.2,2.62V868.5H74v2.62Zm2.2,2.63v-2.63h2.19v2.63ZM78.39,879v-2.63h-2.2v-2.62h2.2V860.62h2.19V879Z"/><path d="M85.86,876.37V868.5h2.19v7.87Zm2.19-7.87v-2.63h8.79v2.63Zm0,10.5v-2.63h8.79V879Zm8.79-2.63V868.5H99v7.87Z"/><path d="M104.3,879V865.87h6.59v2.63H106.5V879Zm6.59,0V868.5h2.2V879Zm2.2-10.5v-2.63h4.39v2.63Zm4.39,10.5V868.5h2.19V879Z"/><path d="M125,879V860.62h2.19v7.88h8.79v2.62h-8.79v5.25h8.79V879Zm11-2.63v-5.25h2.19v5.25Z"/><path d="M143.39,879V865.87h2.2v5.25h2.19v2.63h-2.19V879Zm4.39-7.88V868.5H150v2.62Zm2.2-2.62v-2.63h6.59v2.63Z"/><path d="M161.84,876.37V868.5H164v2.62h8.78V868.5H175v5.25H164v2.62Zm2.2-7.87v-2.63h8.78v2.63Zm0,10.5v-2.63h11V879Z"/><path d="M187.75,876.37v-5.25H190v5.25ZM190,879v-2.63h8.78v-5.25H190V868.5h8.78v-7.88h2.2V879Z"/><path d="M206.2,876.37V868.5h2.2v2.62h8.78V868.5h2.2v5.25h-11v2.62Zm2.2-7.87v-2.63h8.78v2.63Zm0,10.5v-2.63h11V879Z"/><path d="M224.65,879V860.62h2.19V879Z"/><path d="M239.58,881.62V865.87h11v2.63h-8.78v5.25h8.78v2.62h-8.78v5.25Zm11-7.87V868.5h2.19v5.25Z"/><path d="M258,876.37V868.5h2.19v7.87Zm2.19-7.87v-2.63H269v2.63Zm0,10.5v-2.63H269V879Zm8.79-2.63V868.5h2.19v7.87Z"/><path d="M276.47,879V860.62h2.2v10.5h2.19v2.63h-2.19V879Zm4.39-7.88V868.5h4.4v2.62Zm0,5.25v-2.62h4.4v2.62Zm4.4-7.87v-2.63h4.39v2.63Zm0,10.5v-2.63h4.39V879Z"/><path d="M294.92,876.37V868.5h2.2v2.62h8.78V868.5h2.19v5.25h-11v2.62Zm2.2-7.87v-2.63h8.78v2.63Zm0,10.5v-2.63h11V879Z"/><path d="M313.37,879V865.87H320v2.63h-4.39V879Zm6.58,0V868.5h2.2V879Zm2.2-10.5v-2.63h4.39v2.63Zm4.39,10.5V868.5h2.2V879Z"/><path d="M334,876.37V868.5h2.2v7.87Zm2.2-7.87v-2.63H345v2.63Zm0,10.5v-2.63H345V879Zm8.78-2.63V868.5h2.19v7.87Z"/><path d="M352.46,879V865.87h8.78v2.63h-6.59V879Zm8.78,0V868.5h2.2V879Z"/><path d="M376.17,871.12V868.5h11v2.62Z"/><path d="M392.42,863.25v-2.63h2.2v2.63Zm0,15.75v-2.63h2.2V879Zm2.2-13.13v-2.62h2.2v2.62Zm0,10.5v-2.62h2.2v2.62Zm2.2-7.87v-2.63H399v2.63Zm0,5.25v-2.63H399v2.63Zm2.19-2.63V868.5h2.2v2.62Z"/><text/><path d="M222.64,957.66v-3h-3v-3h6v6Zm-3,15v-3h3v-3h3v6Zm6-12v-3h3v3Zm0,6v-3h3v3Zm3-3v-3h3v3Zm3-3v-3h3v3Zm0,6v-3h3v3Zm3-9v-6h6v3h-3v3Zm0,15v-6h3v3h3v3Z"/><path d="M247.84,969.66v-3h3v3Zm3-9v-3h9v3Zm0,12v-3h9v-3h-9v-3h9v-3h3v9h3v3Z"/><path d="M273,966.66v-9h3v9Zm3,3v-3h3v3Zm3,3v-3h3v3Zm3-3v-3h3v3Zm3-3v-9h3v9Z"/><path d="M295.24,957.66v-3h3v3Zm0,15v-12h3v12Z"/><path d="M305.44,969.66v-9h3v3h12v-3h3v6h-15v3Zm3-9v-3h12v3Zm0,12v-3h15v3Z"/><path d="M330.64,972.66v-15h3v6h3v3h-3v6Zm6-9v-3h3v3Zm3-3v-3h9v3Z"/><path d="M366,972.66v-21h15v3H369v6h12v-6h3v9H369v6h15v3Zm18-3v-6h3v6Z"/><path d="M394.24,969.66v-12h3v12Zm3,3v-3h9v-12h3v15Z"/><path d="M416.44,972.66v-15h3v6h3v3h-3v6Zm6-9v-3h3v3Zm3-3v-3h9v3Z"/><path d="M441.64,966.66v-6h3v6Zm0,9v-3h15v3Zm15-3v-3h-12v-3h12v-6h-12v-3h15v15Z"/><path d="M466.84,969.66v-9h3v9Zm3-9v-3h12v3Zm0,12v-3h12v3Zm12-3v-9h3v9Z"/><path d="M492,963.66v-3h3v3Zm0,9v-3h15v3Zm3-12v-3h12v3Zm0,6v-3h12v3Zm12,3v-3h3v3Z"/><path d="M246,1032.66v-21h3v3h3v3h-3v15Zm6-12v-3h3v3Zm3,3v-3h3v3Zm3-3v-3h3v3Zm6,12v-15h-3v-3h3v-3h3v21Z"/><path d="M274.24,1032.66v-21h18v3h-15v6h15v3h-3v3h-3v-3h-9v9Zm15-3v-3h3v3Zm3-9v-6h3v6Zm0,12v-3h3v3Z"/><path d="M302.44,1032.66v-3h6v-15h-6v-3h15v3h-6v15h6v3Z"/><path d="M324.64,1032.66v-21h15v3h-12v15h12v3Zm15-15v-3h3v3Zm0,12v-3h3v3Zm3-3v-9h3v9Z"/><path d="M352.84,1032.66v-6h3v-3h9v-3h3v-3h-9v3h-6v-3h3v-3h15v3h3v6h-6v3h-6v3h12v3Z"/><path d="M381,1032.66v-3h6v-9h-3v-3h3v-3h6v15h6v3Z"/><path d="M412.24,1032.66v-3h-3v-3h-3v-6h3v-3h3v9h3v3h6v3Zm9-3v-9h-3v-3h-6v-3h9v3h3v3h3v6h-3v3Z"/><path d="M437.44,1032.66v-3h-3v-12h3v-3h15v3h-12v3h12v3h3v6h-3v3Zm12-3v-6h-9v6Z"/><path d="M465.64,1032.66v-3h-3v-12h3v-3h15v3h-12v3h12v3h3v6h-3v3Zm12-3v-6h-9v6Z"/></svg>